<mxfile host="app.diagrams.net" agent="Mozilla/5.0 (Macintosh; Intel Mac OS X 10_15_7) AppleWebKit/537.36 (KHTML, like Gecko) Chrome/130.0.0.0 Safari/537.36" version="24.7.17">
  <diagram name="Page-1" id="EQj6OZFHlyaYcnuWCGP_">
    <mxGraphModel dx="2514" dy="895" grid="1" gridSize="10" guides="1" tooltips="1" connect="1" arrows="1" fold="1" page="1" pageScale="1" pageWidth="827" pageHeight="1169" math="0" shadow="0">
      <root>
        <mxCell id="0" />
        <mxCell id="1" parent="0" />
        <mxCell id="31ZLVORW9_pBb689V-0M-76" value="" style="rounded=1;whiteSpace=wrap;html=1;fillColor=#e1d5e7;strokeColor=#9673a6;" vertex="1" parent="1">
          <mxGeometry x="1090" y="470" width="140" height="100" as="geometry" />
        </mxCell>
        <mxCell id="31ZLVORW9_pBb689V-0M-74" value="" style="rounded=1;whiteSpace=wrap;html=1;fillColor=#e1d5e7;strokeColor=#9673a6;" vertex="1" parent="1">
          <mxGeometry x="-110" y="380" width="140" height="100" as="geometry" />
        </mxCell>
        <mxCell id="31ZLVORW9_pBb689V-0M-72" value="" style="rounded=1;whiteSpace=wrap;html=1;fillColor=#e1d5e7;strokeColor=#9673a6;" vertex="1" parent="1">
          <mxGeometry x="55" y="65" width="170" height="270" as="geometry" />
        </mxCell>
        <mxCell id="31ZLVORW9_pBb689V-0M-22" value="" style="rounded=0;whiteSpace=wrap;html=1;fillColor=none;" vertex="1" parent="1">
          <mxGeometry x="290" y="20" width="410" height="580" as="geometry" />
        </mxCell>
        <mxCell id="31ZLVORW9_pBb689V-0M-11" style="edgeStyle=orthogonalEdgeStyle;rounded=0;orthogonalLoop=1;jettySize=auto;html=1;" edge="1" parent="1" source="31ZLVORW9_pBb689V-0M-1" target="31ZLVORW9_pBb689V-0M-10">
          <mxGeometry relative="1" as="geometry" />
        </mxCell>
        <mxCell id="31ZLVORW9_pBb689V-0M-1" value="Create Topic&lt;div&gt;[Use Case]&lt;/div&gt;" style="rounded=1;whiteSpace=wrap;html=1;fillColor=#dae8fc;strokeColor=#6c8ebf;" vertex="1" parent="1">
          <mxGeometry x="320" y="60" width="120" height="60" as="geometry" />
        </mxCell>
        <mxCell id="31ZLVORW9_pBb689V-0M-53" style="edgeStyle=orthogonalEdgeStyle;rounded=0;orthogonalLoop=1;jettySize=auto;html=1;entryX=0;entryY=0.5;entryDx=0;entryDy=0;" edge="1" parent="1" source="31ZLVORW9_pBb689V-0M-2" target="31ZLVORW9_pBb689V-0M-10">
          <mxGeometry relative="1" as="geometry" />
        </mxCell>
        <mxCell id="31ZLVORW9_pBb689V-0M-2" value="Get Topics&amp;nbsp;&lt;div&gt;[Use Case]&lt;/div&gt;" style="rounded=1;whiteSpace=wrap;html=1;fillColor=#dae8fc;strokeColor=#6c8ebf;" vertex="1" parent="1">
          <mxGeometry x="320" y="120" width="120" height="60" as="geometry" />
        </mxCell>
        <mxCell id="31ZLVORW9_pBb689V-0M-14" style="edgeStyle=orthogonalEdgeStyle;rounded=0;orthogonalLoop=1;jettySize=auto;html=1;entryX=0;entryY=0.5;entryDx=0;entryDy=0;" edge="1" parent="1" source="31ZLVORW9_pBb689V-0M-3" target="31ZLVORW9_pBb689V-0M-9">
          <mxGeometry relative="1" as="geometry" />
        </mxCell>
        <mxCell id="31ZLVORW9_pBb689V-0M-3" value="Create Subscription [Use Case]" style="rounded=1;whiteSpace=wrap;html=1;fillColor=#dae8fc;strokeColor=#6c8ebf;" vertex="1" parent="1">
          <mxGeometry x="320" y="200" width="120" height="60" as="geometry" />
        </mxCell>
        <mxCell id="31ZLVORW9_pBb689V-0M-13" style="edgeStyle=orthogonalEdgeStyle;rounded=0;orthogonalLoop=1;jettySize=auto;html=1;entryX=0;entryY=0.5;entryDx=0;entryDy=0;" edge="1" parent="1" source="31ZLVORW9_pBb689V-0M-4" target="31ZLVORW9_pBb689V-0M-9">
          <mxGeometry relative="1" as="geometry" />
        </mxCell>
        <mxCell id="31ZLVORW9_pBb689V-0M-4" value="Get Subscriptions [Use Case]" style="rounded=1;whiteSpace=wrap;html=1;fillColor=#dae8fc;strokeColor=#6c8ebf;" vertex="1" parent="1">
          <mxGeometry x="320" y="260" width="120" height="60" as="geometry" />
        </mxCell>
        <mxCell id="31ZLVORW9_pBb689V-0M-17" value="fetch&amp;nbsp;&lt;div&gt;relevant&lt;/div&gt;&lt;div&gt;subscriptions&lt;/div&gt;" style="edgeStyle=orthogonalEdgeStyle;rounded=0;orthogonalLoop=1;jettySize=auto;html=1;entryX=0;entryY=0.75;entryDx=0;entryDy=0;" edge="1" parent="1" source="31ZLVORW9_pBb689V-0M-5" target="31ZLVORW9_pBb689V-0M-9">
          <mxGeometry x="0.0909" relative="1" as="geometry">
            <Array as="points">
              <mxPoint x="510" y="430" />
              <mxPoint x="510" y="275" />
            </Array>
            <mxPoint as="offset" />
          </mxGeometry>
        </mxCell>
        <mxCell id="31ZLVORW9_pBb689V-0M-18" style="edgeStyle=orthogonalEdgeStyle;rounded=0;orthogonalLoop=1;jettySize=auto;html=1;entryX=0;entryY=0.5;entryDx=0;entryDy=0;" edge="1" parent="1" source="31ZLVORW9_pBb689V-0M-5" target="31ZLVORW9_pBb689V-0M-7">
          <mxGeometry relative="1" as="geometry">
            <Array as="points">
              <mxPoint x="540" y="430" />
              <mxPoint x="540" y="380" />
            </Array>
          </mxGeometry>
        </mxCell>
        <mxCell id="31ZLVORW9_pBb689V-0M-36" value="persist" style="edgeLabel;html=1;align=center;verticalAlign=middle;resizable=0;points=[];" vertex="1" connectable="0" parent="31ZLVORW9_pBb689V-0M-18">
          <mxGeometry x="0.3833" relative="1" as="geometry">
            <mxPoint x="-10" y="-2" as="offset" />
          </mxGeometry>
        </mxCell>
        <mxCell id="31ZLVORW9_pBb689V-0M-20" style="edgeStyle=orthogonalEdgeStyle;rounded=0;orthogonalLoop=1;jettySize=auto;html=1;entryX=0;entryY=0.5;entryDx=0;entryDy=0;" edge="1" parent="1" source="31ZLVORW9_pBb689V-0M-5" target="31ZLVORW9_pBb689V-0M-8">
          <mxGeometry relative="1" as="geometry">
            <Array as="points">
              <mxPoint x="510" y="430" />
              <mxPoint x="510" y="520" />
            </Array>
          </mxGeometry>
        </mxCell>
        <mxCell id="31ZLVORW9_pBb689V-0M-35" value="notify&lt;div&gt;subscribers&lt;/div&gt;" style="edgeLabel;html=1;align=center;verticalAlign=middle;resizable=0;points=[];" vertex="1" connectable="0" parent="31ZLVORW9_pBb689V-0M-20">
          <mxGeometry x="0.2095" y="1" relative="1" as="geometry">
            <mxPoint as="offset" />
          </mxGeometry>
        </mxCell>
        <mxCell id="31ZLVORW9_pBb689V-0M-5" value="Create Message&amp;nbsp;&lt;div&gt;[Use Case]&lt;/div&gt;" style="rounded=1;whiteSpace=wrap;html=1;fillColor=#dae8fc;strokeColor=#6c8ebf;" vertex="1" parent="1">
          <mxGeometry x="320" y="400" width="120" height="60" as="geometry" />
        </mxCell>
        <mxCell id="31ZLVORW9_pBb689V-0M-6" value="Mongo DB" style="shape=cylinder3;whiteSpace=wrap;html=1;boundedLbl=1;backgroundOutline=1;size=15;fillColor=#fff2cc;strokeColor=#d6b656;" vertex="1" parent="1">
          <mxGeometry x="970" y="75" width="130" height="90" as="geometry" />
        </mxCell>
        <mxCell id="31ZLVORW9_pBb689V-0M-7" value="Message Persistence&amp;nbsp;&lt;div&gt;[Port]&lt;/div&gt;" style="rounded=1;whiteSpace=wrap;html=1;fillColor=#dae8fc;strokeColor=#6c8ebf;" vertex="1" parent="1">
          <mxGeometry x="560" y="350" width="120" height="60" as="geometry" />
        </mxCell>
        <mxCell id="31ZLVORW9_pBb689V-0M-8" value="Message Created Notification&lt;div&gt;[Port]&lt;/div&gt;" style="rounded=1;whiteSpace=wrap;html=1;fillColor=#dae8fc;strokeColor=#6c8ebf;" vertex="1" parent="1">
          <mxGeometry x="560" y="490" width="120" height="60" as="geometry" />
        </mxCell>
        <mxCell id="31ZLVORW9_pBb689V-0M-9" value="Subscription Persistence&amp;nbsp;&lt;div&gt;[Port]&lt;/div&gt;" style="rounded=1;whiteSpace=wrap;html=1;fillColor=#dae8fc;strokeColor=#6c8ebf;" vertex="1" parent="1">
          <mxGeometry x="560" y="230" width="120" height="60" as="geometry" />
        </mxCell>
        <mxCell id="31ZLVORW9_pBb689V-0M-10" value="Topic Persistence&amp;nbsp;&lt;div&gt;[Port]&lt;/div&gt;" style="rounded=1;whiteSpace=wrap;html=1;fillColor=#dae8fc;strokeColor=#6c8ebf;" vertex="1" parent="1">
          <mxGeometry x="560" y="90" width="120" height="60" as="geometry" />
        </mxCell>
        <mxCell id="31ZLVORW9_pBb689V-0M-24" value="&lt;font style=&quot;font-size: 15px;&quot;&gt;Domain&lt;/font&gt;" style="text;html=1;align=center;verticalAlign=middle;whiteSpace=wrap;rounded=0;" vertex="1" parent="1">
          <mxGeometry x="290" y="20" width="60" height="30" as="geometry" />
        </mxCell>
        <mxCell id="31ZLVORW9_pBb689V-0M-34" style="edgeStyle=orthogonalEdgeStyle;rounded=0;orthogonalLoop=1;jettySize=auto;html=1;entryX=0;entryY=0.5;entryDx=0;entryDy=0;" edge="1" parent="1" source="31ZLVORW9_pBb689V-0M-25" target="31ZLVORW9_pBb689V-0M-5">
          <mxGeometry relative="1" as="geometry" />
        </mxCell>
        <mxCell id="31ZLVORW9_pBb689V-0M-25" value="Publisher Session Handler&lt;div&gt;[Task]&lt;/div&gt;" style="rounded=1;whiteSpace=wrap;html=1;fillColor=#e1d5e7;strokeColor=#9673a6;" vertex="1" parent="1">
          <mxGeometry x="90" y="400" width="120" height="60" as="geometry" />
        </mxCell>
        <mxCell id="31ZLVORW9_pBb689V-0M-27" style="edgeStyle=orthogonalEdgeStyle;rounded=0;orthogonalLoop=1;jettySize=auto;html=1;entryX=0;entryY=0.5;entryDx=0;entryDy=0;dashed=1;" edge="1" parent="1" source="31ZLVORW9_pBb689V-0M-26" target="31ZLVORW9_pBb689V-0M-25">
          <mxGeometry relative="1" as="geometry" />
        </mxCell>
        <mxCell id="31ZLVORW9_pBb689V-0M-28" value="create&amp;nbsp;&lt;div&gt;session&lt;/div&gt;" style="edgeLabel;html=1;align=center;verticalAlign=middle;resizable=0;points=[];" vertex="1" connectable="0" parent="31ZLVORW9_pBb689V-0M-27">
          <mxGeometry x="-0.0333" y="-1" relative="1" as="geometry">
            <mxPoint x="-4" y="-1" as="offset" />
          </mxGeometry>
        </mxCell>
        <mxCell id="31ZLVORW9_pBb689V-0M-26" value="Publisher Server&lt;div&gt;[TCP:8060]&lt;/div&gt;" style="rounded=1;whiteSpace=wrap;html=1;fillColor=#e1d5e7;strokeColor=#9673a6;" vertex="1" parent="1">
          <mxGeometry x="-100" y="400" width="120" height="60" as="geometry" />
        </mxCell>
        <mxCell id="31ZLVORW9_pBb689V-0M-32" style="edgeStyle=orthogonalEdgeStyle;rounded=0;orthogonalLoop=1;jettySize=auto;html=1;entryX=0.5;entryY=1;entryDx=0;entryDy=0;" edge="1" parent="1" source="31ZLVORW9_pBb689V-0M-31" target="31ZLVORW9_pBb689V-0M-25">
          <mxGeometry relative="1" as="geometry" />
        </mxCell>
        <mxCell id="31ZLVORW9_pBb689V-0M-33" value="publish&amp;nbsp;&lt;div&gt;message&lt;/div&gt;" style="edgeLabel;html=1;align=center;verticalAlign=middle;resizable=0;points=[];" vertex="1" connectable="0" parent="31ZLVORW9_pBb689V-0M-32">
          <mxGeometry x="0.1048" y="1" relative="1" as="geometry">
            <mxPoint as="offset" />
          </mxGeometry>
        </mxCell>
        <mxCell id="31ZLVORW9_pBb689V-0M-31" value="Publisher&lt;div&gt;[Client]&lt;/div&gt;" style="rounded=1;whiteSpace=wrap;html=1;fillColor=#fff2cc;strokeColor=#d6b656;" vertex="1" parent="1">
          <mxGeometry x="90" y="670" width="120" height="60" as="geometry" />
        </mxCell>
        <mxCell id="31ZLVORW9_pBb689V-0M-39" style="edgeStyle=orthogonalEdgeStyle;rounded=0;orthogonalLoop=1;jettySize=auto;html=1;entryX=1;entryY=0.5;entryDx=0;entryDy=0;dashed=1;" edge="1" parent="1" source="31ZLVORW9_pBb689V-0M-37" target="31ZLVORW9_pBb689V-0M-38">
          <mxGeometry relative="1" as="geometry" />
        </mxCell>
        <mxCell id="31ZLVORW9_pBb689V-0M-40" value="create&lt;div&gt;session&lt;/div&gt;" style="edgeLabel;html=1;align=center;verticalAlign=middle;resizable=0;points=[];" vertex="1" connectable="0" parent="31ZLVORW9_pBb689V-0M-39">
          <mxGeometry x="-0.28" relative="1" as="geometry">
            <mxPoint x="-9" as="offset" />
          </mxGeometry>
        </mxCell>
        <mxCell id="31ZLVORW9_pBb689V-0M-37" value="Subscriber Server&lt;div&gt;[TCP:8070]&lt;/div&gt;" style="rounded=1;whiteSpace=wrap;html=1;fillColor=#e1d5e7;strokeColor=#9673a6;" vertex="1" parent="1">
          <mxGeometry x="1100" y="490" width="120" height="60" as="geometry" />
        </mxCell>
        <mxCell id="31ZLVORW9_pBb689V-0M-42" style="edgeStyle=orthogonalEdgeStyle;rounded=0;orthogonalLoop=1;jettySize=auto;html=1;exitX=0.25;exitY=1;exitDx=0;exitDy=0;entryX=0.25;entryY=0;entryDx=0;entryDy=0;" edge="1" parent="1" source="31ZLVORW9_pBb689V-0M-38" target="31ZLVORW9_pBb689V-0M-41">
          <mxGeometry relative="1" as="geometry" />
        </mxCell>
        <mxCell id="31ZLVORW9_pBb689V-0M-43" value="consume&lt;div&gt;message&lt;/div&gt;" style="edgeLabel;html=1;align=center;verticalAlign=middle;resizable=0;points=[];" vertex="1" connectable="0" parent="31ZLVORW9_pBb689V-0M-42">
          <mxGeometry x="-0.1833" y="-2" relative="1" as="geometry">
            <mxPoint as="offset" />
          </mxGeometry>
        </mxCell>
        <mxCell id="31ZLVORW9_pBb689V-0M-49" style="edgeStyle=orthogonalEdgeStyle;rounded=0;orthogonalLoop=1;jettySize=auto;html=1;exitX=0;exitY=0.25;exitDx=0;exitDy=0;entryX=1;entryY=0.25;entryDx=0;entryDy=0;" edge="1" parent="1" source="31ZLVORW9_pBb689V-0M-38" target="31ZLVORW9_pBb689V-0M-46">
          <mxGeometry relative="1" as="geometry" />
        </mxCell>
        <mxCell id="31ZLVORW9_pBb689V-0M-50" value="register" style="edgeLabel;html=1;align=center;verticalAlign=middle;resizable=0;points=[];" vertex="1" connectable="0" parent="31ZLVORW9_pBb689V-0M-49">
          <mxGeometry x="-0.4333" y="1" relative="1" as="geometry">
            <mxPoint x="-13" as="offset" />
          </mxGeometry>
        </mxCell>
        <mxCell id="31ZLVORW9_pBb689V-0M-38" value="Subscriber Session Handler&lt;div&gt;[Task]&lt;/div&gt;" style="rounded=1;whiteSpace=wrap;html=1;fillColor=#e1d5e7;strokeColor=#9673a6;" vertex="1" parent="1">
          <mxGeometry x="910" y="490" width="120" height="60" as="geometry" />
        </mxCell>
        <mxCell id="31ZLVORW9_pBb689V-0M-44" style="edgeStyle=orthogonalEdgeStyle;rounded=0;orthogonalLoop=1;jettySize=auto;html=1;exitX=0.75;exitY=0;exitDx=0;exitDy=0;entryX=0.75;entryY=1;entryDx=0;entryDy=0;" edge="1" parent="1" source="31ZLVORW9_pBb689V-0M-41" target="31ZLVORW9_pBb689V-0M-38">
          <mxGeometry relative="1" as="geometry" />
        </mxCell>
        <mxCell id="31ZLVORW9_pBb689V-0M-45" value="publish&lt;div&gt;ack&lt;/div&gt;" style="edgeLabel;html=1;align=center;verticalAlign=middle;resizable=0;points=[];" vertex="1" connectable="0" parent="31ZLVORW9_pBb689V-0M-44">
          <mxGeometry x="0.1667" y="1" relative="1" as="geometry">
            <mxPoint as="offset" />
          </mxGeometry>
        </mxCell>
        <mxCell id="31ZLVORW9_pBb689V-0M-41" value="Consumer&lt;div&gt;[Client]&lt;/div&gt;" style="rounded=1;whiteSpace=wrap;html=1;fillColor=#fff2cc;strokeColor=#d6b656;" vertex="1" parent="1">
          <mxGeometry x="910" y="670" width="120" height="60" as="geometry" />
        </mxCell>
        <mxCell id="31ZLVORW9_pBb689V-0M-48" style="edgeStyle=orthogonalEdgeStyle;rounded=0;orthogonalLoop=1;jettySize=auto;html=1;entryX=1;entryY=0.5;entryDx=0;entryDy=0;dashed=1;endArrow=block;endFill=0;" edge="1" parent="1" source="31ZLVORW9_pBb689V-0M-46" target="31ZLVORW9_pBb689V-0M-8">
          <mxGeometry relative="1" as="geometry" />
        </mxCell>
        <mxCell id="31ZLVORW9_pBb689V-0M-51" style="edgeStyle=orthogonalEdgeStyle;rounded=0;orthogonalLoop=1;jettySize=auto;html=1;exitX=1;exitY=0.75;exitDx=0;exitDy=0;entryX=0;entryY=0.75;entryDx=0;entryDy=0;" edge="1" parent="1" source="31ZLVORW9_pBb689V-0M-46" target="31ZLVORW9_pBb689V-0M-38">
          <mxGeometry relative="1" as="geometry">
            <mxPoint x="910" y="535" as="targetPoint" />
          </mxGeometry>
        </mxCell>
        <mxCell id="31ZLVORW9_pBb689V-0M-52" value="push&lt;br&gt;&lt;div&gt;message&lt;/div&gt;" style="edgeLabel;html=1;align=center;verticalAlign=middle;resizable=0;points=[];" vertex="1" connectable="0" parent="31ZLVORW9_pBb689V-0M-51">
          <mxGeometry y="-1" relative="1" as="geometry">
            <mxPoint as="offset" />
          </mxGeometry>
        </mxCell>
        <mxCell id="31ZLVORW9_pBb689V-0M-46" value="Message Created Notification&lt;div&gt;[Adapter]&lt;/div&gt;" style="rounded=1;whiteSpace=wrap;html=1;fillColor=#e1d5e7;strokeColor=#9673a6;" vertex="1" parent="1">
          <mxGeometry x="710" y="490" width="120" height="60" as="geometry" />
        </mxCell>
        <mxCell id="31ZLVORW9_pBb689V-0M-59" style="edgeStyle=orthogonalEdgeStyle;rounded=0;orthogonalLoop=1;jettySize=auto;html=1;entryX=1;entryY=0.5;entryDx=0;entryDy=0;endArrow=block;endFill=0;dashed=1;" edge="1" parent="1" source="31ZLVORW9_pBb689V-0M-54" target="31ZLVORW9_pBb689V-0M-7">
          <mxGeometry relative="1" as="geometry" />
        </mxCell>
        <mxCell id="31ZLVORW9_pBb689V-0M-54" value="Message Persistence&lt;div&gt;[Port]&lt;/div&gt;" style="rounded=1;whiteSpace=wrap;html=1;fillColor=#e1d5e7;strokeColor=#9673a6;" vertex="1" parent="1">
          <mxGeometry x="720" y="350" width="120" height="60" as="geometry" />
        </mxCell>
        <mxCell id="31ZLVORW9_pBb689V-0M-58" style="edgeStyle=orthogonalEdgeStyle;rounded=0;orthogonalLoop=1;jettySize=auto;html=1;entryX=1;entryY=0.5;entryDx=0;entryDy=0;dashed=1;endArrow=block;endFill=0;" edge="1" parent="1" source="31ZLVORW9_pBb689V-0M-55" target="31ZLVORW9_pBb689V-0M-9">
          <mxGeometry relative="1" as="geometry" />
        </mxCell>
        <mxCell id="31ZLVORW9_pBb689V-0M-55" value="Subscription Persistence&lt;div&gt;[Port]&lt;/div&gt;" style="rounded=1;whiteSpace=wrap;html=1;fillColor=#e1d5e7;strokeColor=#9673a6;" vertex="1" parent="1">
          <mxGeometry x="720" y="230" width="120" height="60" as="geometry" />
        </mxCell>
        <mxCell id="31ZLVORW9_pBb689V-0M-57" style="edgeStyle=orthogonalEdgeStyle;rounded=0;orthogonalLoop=1;jettySize=auto;html=1;entryX=1;entryY=0.5;entryDx=0;entryDy=0;dashed=1;endArrow=block;endFill=0;" edge="1" parent="1" source="31ZLVORW9_pBb689V-0M-56" target="31ZLVORW9_pBb689V-0M-10">
          <mxGeometry relative="1" as="geometry" />
        </mxCell>
        <mxCell id="31ZLVORW9_pBb689V-0M-56" value="Topic Persistence&lt;div&gt;[Port]&lt;/div&gt;" style="rounded=1;whiteSpace=wrap;html=1;fillColor=#e1d5e7;strokeColor=#9673a6;" vertex="1" parent="1">
          <mxGeometry x="720" y="90" width="120" height="60" as="geometry" />
        </mxCell>
        <mxCell id="31ZLVORW9_pBb689V-0M-60" style="edgeStyle=orthogonalEdgeStyle;rounded=0;orthogonalLoop=1;jettySize=auto;html=1;entryX=0;entryY=0.5;entryDx=0;entryDy=0;entryPerimeter=0;" edge="1" parent="1" source="31ZLVORW9_pBb689V-0M-56" target="31ZLVORW9_pBb689V-0M-6">
          <mxGeometry relative="1" as="geometry" />
        </mxCell>
        <mxCell id="31ZLVORW9_pBb689V-0M-61" style="edgeStyle=orthogonalEdgeStyle;rounded=0;orthogonalLoop=1;jettySize=auto;html=1;entryX=0;entryY=0.5;entryDx=0;entryDy=0;entryPerimeter=0;" edge="1" parent="1" source="31ZLVORW9_pBb689V-0M-55" target="31ZLVORW9_pBb689V-0M-6">
          <mxGeometry relative="1" as="geometry" />
        </mxCell>
        <mxCell id="31ZLVORW9_pBb689V-0M-62" style="edgeStyle=orthogonalEdgeStyle;rounded=0;orthogonalLoop=1;jettySize=auto;html=1;entryX=0;entryY=0.5;entryDx=0;entryDy=0;entryPerimeter=0;" edge="1" parent="1" source="31ZLVORW9_pBb689V-0M-54" target="31ZLVORW9_pBb689V-0M-6">
          <mxGeometry relative="1" as="geometry" />
        </mxCell>
        <mxCell id="31ZLVORW9_pBb689V-0M-66" style="edgeStyle=orthogonalEdgeStyle;rounded=0;orthogonalLoop=1;jettySize=auto;html=1;" edge="1" parent="1" source="31ZLVORW9_pBb689V-0M-63" target="31ZLVORW9_pBb689V-0M-1">
          <mxGeometry relative="1" as="geometry">
            <Array as="points">
              <mxPoint x="270" y="120" />
              <mxPoint x="270" y="90" />
            </Array>
          </mxGeometry>
        </mxCell>
        <mxCell id="31ZLVORW9_pBb689V-0M-67" style="edgeStyle=orthogonalEdgeStyle;rounded=0;orthogonalLoop=1;jettySize=auto;html=1;" edge="1" parent="1" source="31ZLVORW9_pBb689V-0M-63" target="31ZLVORW9_pBb689V-0M-2">
          <mxGeometry relative="1" as="geometry">
            <Array as="points">
              <mxPoint x="270" y="120" />
              <mxPoint x="270" y="150" />
            </Array>
          </mxGeometry>
        </mxCell>
        <mxCell id="31ZLVORW9_pBb689V-0M-63" value="Topics&lt;div&gt;[API]&lt;/div&gt;" style="rounded=1;whiteSpace=wrap;html=1;fillColor=#e1d5e7;strokeColor=#9673a6;" vertex="1" parent="1">
          <mxGeometry x="80" y="90" width="120" height="60" as="geometry" />
        </mxCell>
        <mxCell id="31ZLVORW9_pBb689V-0M-68" style="edgeStyle=orthogonalEdgeStyle;rounded=0;orthogonalLoop=1;jettySize=auto;html=1;entryX=0;entryY=0.5;entryDx=0;entryDy=0;" edge="1" parent="1" source="31ZLVORW9_pBb689V-0M-64" target="31ZLVORW9_pBb689V-0M-3">
          <mxGeometry relative="1" as="geometry">
            <Array as="points">
              <mxPoint x="270" y="200" />
              <mxPoint x="270" y="230" />
            </Array>
          </mxGeometry>
        </mxCell>
        <mxCell id="31ZLVORW9_pBb689V-0M-69" style="edgeStyle=orthogonalEdgeStyle;rounded=0;orthogonalLoop=1;jettySize=auto;html=1;entryX=0;entryY=0.5;entryDx=0;entryDy=0;" edge="1" parent="1" source="31ZLVORW9_pBb689V-0M-64" target="31ZLVORW9_pBb689V-0M-4">
          <mxGeometry relative="1" as="geometry">
            <Array as="points">
              <mxPoint x="270" y="200" />
              <mxPoint x="270" y="290" />
            </Array>
          </mxGeometry>
        </mxCell>
        <mxCell id="31ZLVORW9_pBb689V-0M-64" value="Subscriptions&lt;div&gt;[API]&lt;/div&gt;" style="rounded=1;whiteSpace=wrap;html=1;fillColor=#e1d5e7;strokeColor=#9673a6;" vertex="1" parent="1">
          <mxGeometry x="80" y="170" width="120" height="60" as="geometry" />
        </mxCell>
        <mxCell id="31ZLVORW9_pBb689V-0M-71" style="edgeStyle=orthogonalEdgeStyle;rounded=0;orthogonalLoop=1;jettySize=auto;html=1;entryX=0;entryY=0.25;entryDx=0;entryDy=0;" edge="1" parent="1" source="31ZLVORW9_pBb689V-0M-65" target="31ZLVORW9_pBb689V-0M-5">
          <mxGeometry relative="1" as="geometry">
            <Array as="points">
              <mxPoint x="250" y="280" />
              <mxPoint x="250" y="415" />
            </Array>
          </mxGeometry>
        </mxCell>
        <mxCell id="31ZLVORW9_pBb689V-0M-81" style="edgeStyle=orthogonalEdgeStyle;rounded=0;orthogonalLoop=1;jettySize=auto;html=1;exitX=1;exitY=0.5;exitDx=0;exitDy=0;entryX=0;entryY=0.5;entryDx=0;entryDy=0;" edge="1" parent="1" source="31ZLVORW9_pBb689V-0M-65" target="31ZLVORW9_pBb689V-0M-78">
          <mxGeometry relative="1" as="geometry">
            <Array as="points">
              <mxPoint x="250" y="280" />
              <mxPoint x="250" y="490" />
            </Array>
          </mxGeometry>
        </mxCell>
        <mxCell id="31ZLVORW9_pBb689V-0M-65" value="Messages&lt;div&gt;[API]&lt;/div&gt;" style="rounded=1;whiteSpace=wrap;html=1;fillColor=#e1d5e7;strokeColor=#9673a6;" vertex="1" parent="1">
          <mxGeometry x="80" y="250" width="120" height="60" as="geometry" />
        </mxCell>
        <mxCell id="31ZLVORW9_pBb689V-0M-73" value="&lt;font style=&quot;font-size: 12px;&quot;&gt;HTTP Server/8080&lt;/font&gt;" style="text;html=1;align=center;verticalAlign=middle;whiteSpace=wrap;rounded=0;" vertex="1" parent="1">
          <mxGeometry x="74" y="64" width="140" height="30" as="geometry" />
        </mxCell>
        <mxCell id="31ZLVORW9_pBb689V-0M-75" value="&lt;font style=&quot;font-size: 12px;&quot;&gt;TCP Server/8060&lt;/font&gt;" style="text;html=1;align=center;verticalAlign=middle;whiteSpace=wrap;rounded=0;" vertex="1" parent="1">
          <mxGeometry x="-109" y="377" width="140" height="30" as="geometry" />
        </mxCell>
        <mxCell id="31ZLVORW9_pBb689V-0M-77" value="&lt;font style=&quot;font-size: 12px;&quot;&gt;TCP Server/8070&lt;/font&gt;" style="text;html=1;align=center;verticalAlign=middle;whiteSpace=wrap;rounded=0;" vertex="1" parent="1">
          <mxGeometry x="1087" y="467" width="140" height="30" as="geometry" />
        </mxCell>
        <mxCell id="31ZLVORW9_pBb689V-0M-80" style="edgeStyle=orthogonalEdgeStyle;rounded=0;orthogonalLoop=1;jettySize=auto;html=1;entryX=0.25;entryY=1;entryDx=0;entryDy=0;" edge="1" parent="1" source="31ZLVORW9_pBb689V-0M-78" target="31ZLVORW9_pBb689V-0M-7">
          <mxGeometry relative="1" as="geometry">
            <Array as="points">
              <mxPoint x="470" y="490" />
              <mxPoint x="470" y="450" />
              <mxPoint x="590" y="450" />
            </Array>
          </mxGeometry>
        </mxCell>
        <mxCell id="31ZLVORW9_pBb689V-0M-78" value="Ack Message&amp;nbsp;&lt;div&gt;[Use Case]&lt;/div&gt;" style="rounded=1;whiteSpace=wrap;html=1;fillColor=#dae8fc;strokeColor=#6c8ebf;" vertex="1" parent="1">
          <mxGeometry x="320" y="460" width="120" height="60" as="geometry" />
        </mxCell>
      </root>
    </mxGraphModel>
  </diagram>
</mxfile>
